<?xml version="1.0" encoding="UTF-8" standalone="no"?>
<!DOCTYPE svg PUBLIC "-//W3C//DTD SVG 1.1//EN" "http://www.w3.org/Graphics/SVG/1.1/DTD/svg11.dtd">
<svg width="100%" height="100%" viewBox="0 0 1030 224" version="1.1" xmlns="http://www.w3.org/2000/svg" xmlns:xlink="http://www.w3.org/1999/xlink" xml:space="preserve" xmlns:serif="http://www.serif.com/" style="fill-rule:evenodd;clip-rule:evenodd;stroke-linecap:round;stroke-linejoin:bevel;stroke-miterlimit:1.5;">
    <g transform="matrix(1,0,0,1,-42.252,1.748)">
        <path d="M44,21.932C44,16.969 46.444,12.325 50.535,9.515C54.626,6.706 59.838,6.092 64.47,7.873C102.593,22.536 182.01,53.081 197.39,58.996C199.115,59.66 200.948,60 202.797,60C252.299,60 943.677,60 1054.94,60C1058.93,60 1062.76,61.587 1065.59,64.412C1068.41,67.237 1070,71.068 1070,75.063C1070,93.931 1070,126.069 1070,144.937C1070,148.932 1068.41,152.763 1065.59,155.588C1062.76,158.413 1058.93,160 1054.94,160C943.677,160 252.299,160 202.797,160C200.948,160 199.115,160.34 197.39,161.004C182.01,166.919 102.593,197.464 64.47,212.127C59.838,213.908 54.626,213.294 50.535,210.485C46.444,207.675 44,203.031 44,198.068C44,155.924 44,64.076 44,21.932Z" style="fill:rgb(254,251,242);stroke:rgb(225,163,159);stroke-width:3.5px;"/>
        <g id="Stitch" transform="matrix(1.1,0,0,1.10942,2.01948e-28,-13.2826)">
            <g id="Marker">
                <path id="Stitch1" serif:id="Stitch" d="M51.924,111.123C51.924,112.176 51.062,113.031 50,113.031C48.938,113.031 48.076,112.176 48.076,111.123L48.076,95.698C48.076,94.645 48.938,93.79 50,93.79C51.062,93.79 51.924,94.645 51.924,95.698L51.924,111.123ZM51.924,80.272C51.924,81.325 51.062,82.18 50,82.18C48.938,82.18 48.076,81.325 48.076,80.272L48.076,49.421C48.076,48.368 48.938,47.513 50,47.513C51.062,47.513 51.924,48.368 51.924,49.421L51.924,80.272ZM54.133,35.87C53.443,36.67 52.228,36.765 51.421,36.081C50.614,35.396 50.518,34.191 51.209,33.391C51.931,32.553 52.767,31.801 53.702,31.159C57.226,28.741 61.722,28.192 65.732,29.689L82.106,35.802C83.099,36.173 83.602,37.274 83.228,38.26C82.854,39.245 81.743,39.744 80.75,39.373L64.376,33.26C61.548,32.204 58.377,32.591 55.892,34.296C55.232,34.749 54.643,35.279 54.133,35.87ZM95.309,44.809C94.315,44.437 93.812,43.336 94.187,42.351C94.561,41.366 95.671,40.867 96.665,41.238L125.785,52.11C126.778,52.481 127.281,53.582 126.907,54.567C126.533,55.553 125.422,56.051 124.429,55.68L95.309,44.809ZM138.988,61.116C137.994,60.745 137.491,59.644 137.866,58.659C138.24,57.673 139.35,57.175 140.344,57.546L169.464,68.418C170.457,68.789 170.96,69.89 170.586,70.875C170.212,71.86 169.101,72.359 168.108,71.988L138.988,61.116ZM183.358,76.908C182.3,76.819 181.514,75.895 181.603,74.846C181.693,73.797 182.625,73.017 183.683,73.106C184.118,73.143 184.555,73.161 184.993,73.161L214.634,73.161C215.696,73.161 216.558,74.016 216.558,75.069C216.558,76.121 215.696,76.976 214.634,76.976L184.993,76.976C184.446,76.976 183.901,76.953 183.358,76.908ZM230.191,76.976C229.13,76.976 228.267,76.121 228.267,75.069C228.267,74.016 229.13,73.161 230.191,73.161L261.307,73.161C262.369,73.161 263.231,74.016 263.231,75.069C263.231,76.121 262.369,76.976 261.307,76.976L230.191,76.976ZM276.865,76.976C275.803,76.976 274.941,76.121 274.941,75.069C274.941,74.016 275.803,73.161 276.865,73.161L307.98,73.161C309.042,73.161 309.904,74.016 309.904,75.069C309.904,76.121 309.042,76.976 307.98,76.976L276.865,76.976ZM323.538,76.976C322.476,76.976 321.614,76.121 321.614,75.069C321.614,74.016 322.476,73.161 323.538,73.161L354.653,73.161C355.715,73.161 356.577,74.016 356.577,75.069C356.577,76.121 355.715,76.976 354.653,76.976L323.538,76.976ZM370.212,76.976C369.15,76.976 368.288,76.121 368.288,75.069C368.288,74.016 369.15,73.161 370.212,73.161L401.327,73.161C402.389,73.161 403.251,74.016 403.251,75.069C403.251,76.121 402.389,76.976 401.327,76.976L370.212,76.976ZM416.884,76.976C415.822,76.976 414.96,76.121 414.96,75.069C414.96,74.016 415.822,73.161 416.884,73.161L447.999,73.161C449.061,73.161 449.923,74.016 449.923,75.069C449.923,76.121 449.061,76.976 447.999,76.976L416.884,76.976ZM463.558,76.976C462.496,76.976 461.634,76.121 461.634,75.069C461.634,74.016 462.496,73.161 463.558,73.161L494.673,73.161C495.735,73.161 496.597,74.016 496.597,75.069C496.597,76.121 495.735,76.976 494.673,76.976L463.558,76.976ZM510.231,76.976C509.169,76.976 508.307,76.121 508.307,75.069C508.307,74.016 509.169,73.161 510.231,73.161L541.347,73.161C542.409,73.161 543.271,74.016 543.271,75.069C543.271,76.121 542.409,76.976 541.347,76.976L510.231,76.976ZM556.904,76.976C555.842,76.976 554.98,76.121 554.98,75.069C554.98,74.016 555.842,73.161 556.904,73.161L588.02,73.161C589.082,73.161 589.944,74.016 589.944,75.069C589.944,76.121 589.082,76.976 588.02,76.976L556.904,76.976ZM603.577,76.976C602.515,76.976 601.653,76.121 601.653,75.069C601.653,74.016 602.515,73.161 603.577,73.161L634.692,73.161C635.754,73.161 636.616,74.016 636.616,75.069C636.616,76.121 635.754,76.976 634.692,76.976L603.577,76.976ZM650.25,76.976C649.188,76.976 648.326,76.121 648.326,75.069C648.326,74.016 649.188,73.161 650.25,73.161L681.365,73.161C682.427,73.161 683.289,74.016 683.289,75.069C683.289,76.121 682.427,76.976 681.365,76.976L650.25,76.976ZM696.923,76.976C695.861,76.976 694.999,76.121 694.999,75.069C694.999,74.016 695.861,73.161 696.923,73.161L728.039,73.161C729.101,73.161 729.963,74.016 729.963,75.069C729.963,76.121 729.101,76.976 728.039,76.976L696.923,76.976ZM743.596,76.976C742.535,76.976 741.672,76.121 741.672,75.069C741.672,74.016 742.535,73.161 743.596,73.161L774.712,73.161C775.774,73.161 776.636,74.016 776.636,75.069C776.636,76.121 775.774,76.976 774.712,76.976L743.596,76.976ZM790.269,76.976C789.207,76.976 788.345,76.121 788.345,75.069C788.345,74.016 789.207,73.161 790.269,73.161L821.385,73.161C822.447,73.161 823.309,74.016 823.309,75.069C823.309,76.121 822.447,76.976 821.385,76.976L790.269,76.976ZM836.942,76.976C835.88,76.976 835.018,76.121 835.018,75.069C835.018,74.016 835.88,73.161 836.942,73.161L868.058,73.161C869.12,73.161 869.982,74.016 869.982,75.069C869.982,76.121 869.12,76.976 868.058,76.976L836.942,76.976ZM883.614,76.976C882.553,76.976 881.69,76.121 881.69,75.069C881.69,74.016 882.553,73.161 883.614,73.161L914.73,73.161C915.792,73.161 916.654,74.016 916.654,75.069C916.654,76.121 915.792,76.976 914.73,76.976L883.614,76.976ZM930.288,76.976C929.226,76.976 928.364,76.121 928.364,75.069C928.364,74.016 929.226,73.161 930.288,73.161L946.197,73.161C952.146,73.161 957.468,75.82 961.02,80.006C961.703,80.812 961.599,82.016 960.786,82.694C959.974,83.372 958.759,83.268 958.075,82.462C955.229,79.108 950.964,76.976 946.197,76.976L930.288,76.976ZM961.712,95.698C961.712,94.645 962.574,93.79 963.636,93.79C964.698,93.79 965.56,94.645 965.56,95.698L965.56,111.123C965.56,112.176 964.698,113.031 963.636,113.031C962.574,113.031 961.712,112.176 961.712,111.123L961.712,95.698Z" style="fill:rgb(255,98,142);"/>
            </g>
        </g>
        <g id="Stitch2" serif:id="Stitch" transform="matrix(1.1,0,0,-0.911149,2.01948e-28,229.186)">
            <g id="Marker1" serif:id="Marker">
                <path id="Stitch3" serif:id="Stitch" d="M48.076,130.808C48.076,132.09 48.938,133.131 50,133.131C51.062,133.131 51.924,132.09 51.924,130.808L51.924,111.982C51.924,110.7 51.062,109.659 50,109.659C48.938,109.659 48.076,110.7 48.076,111.982L48.076,130.808ZM48.076,93.156C48.076,94.438 48.938,95.479 50,95.479C51.062,95.479 51.924,94.438 51.924,93.156L51.924,55.504C51.924,54.222 51.062,53.181 50,53.181C48.938,53.181 48.076,54.222 48.076,55.504L48.076,93.156ZM50.103,35.831C49.534,36.914 49.801,38.351 50.698,39.037C51.596,39.723 52.785,39.4 53.353,38.317C54.015,37.055 54.89,35.95 55.942,35.084C58.456,33.013 61.656,32.576 64.49,33.916L79.231,40.887C80.22,41.355 81.337,40.765 81.725,39.572C82.112,38.378 81.624,37.029 80.635,36.562L65.893,29.59C61.875,27.69 57.339,28.31 53.774,31.246C52.282,32.474 51.041,34.042 50.103,35.831ZM95.155,43.428C94.166,42.961 93.049,43.55 92.661,44.744C92.274,45.938 92.762,47.286 93.751,47.754L122.791,61.487C123.779,61.955 124.896,61.365 125.284,60.172C125.671,58.978 125.183,57.629 124.194,57.162L95.155,43.428ZM138.714,64.028C137.725,63.561 136.608,64.15 136.221,65.344C135.833,66.537 136.322,67.886 137.31,68.354L166.35,82.087C167.339,82.555 168.456,81.965 168.843,80.771C169.23,79.578 168.742,78.229 167.753,77.761L138.714,64.028ZM182.035,84.213C180.994,83.958 179.978,84.772 179.767,86.028C179.557,87.285 180.231,88.512 181.271,88.766C182.533,89.074 183.819,89.23 185.112,89.23L212.818,89.23C213.88,89.23 214.742,88.189 214.742,86.908C214.742,85.626 213.88,84.585 212.818,84.585L185.112,84.585C184.076,84.585 183.045,84.46 182.035,84.213ZM228.411,84.585C227.35,84.585 226.487,85.626 226.487,86.908C226.487,88.189 227.35,89.23 228.411,89.23L259.6,89.23C260.662,89.23 261.524,88.189 261.524,86.908C261.524,85.626 260.662,84.585 259.6,84.585L228.411,84.585ZM275.193,84.585C274.132,84.585 273.269,85.626 273.269,86.908C273.269,88.189 274.132,89.23 275.193,89.23L306.381,89.23C307.443,89.23 308.305,88.189 308.305,86.908C308.305,85.626 307.443,84.585 306.381,84.585L275.193,84.585ZM321.977,84.585C320.915,84.585 320.053,85.626 320.053,86.908C320.053,88.189 320.915,89.23 321.977,89.23L353.165,89.23C354.227,89.23 355.089,88.189 355.089,86.908C355.089,85.626 354.227,84.585 353.165,84.585L321.977,84.585ZM368.757,84.585C367.695,84.585 366.833,85.626 366.833,86.908C366.833,88.189 367.695,89.23 368.757,89.23L399.946,89.23C401.008,89.23 401.87,88.189 401.87,86.908C401.87,85.626 401.008,84.585 399.946,84.585L368.757,84.585ZM415.54,84.585C414.478,84.585 413.616,85.626 413.616,86.908C413.616,88.189 414.478,89.23 415.54,89.23L446.728,89.23C447.79,89.23 448.652,88.189 448.652,86.908C448.652,85.626 447.79,84.585 446.728,84.585L415.54,84.585ZM462.322,84.585C461.26,84.585 460.398,85.626 460.398,86.908C460.398,88.189 461.26,89.23 462.322,89.23L493.51,89.23C494.572,89.23 495.434,88.189 495.434,86.908C495.434,85.626 494.572,84.585 493.51,84.585L462.322,84.585ZM509.104,84.585C508.042,84.585 507.18,85.626 507.18,86.908C507.18,88.189 508.042,89.23 509.104,89.23L540.292,89.23C541.354,89.23 542.216,88.189 542.216,86.908C542.216,85.626 541.354,84.585 540.292,84.585L509.104,84.585ZM555.887,84.585C554.825,84.585 553.963,85.626 553.963,86.908C553.963,88.189 554.825,89.23 555.887,89.23L587.075,89.23C588.137,89.23 588.999,88.189 588.999,86.908C588.999,85.626 588.137,84.585 587.075,84.585L555.887,84.585ZM602.669,84.585C601.607,84.585 600.745,85.626 600.745,86.908C600.745,88.189 601.607,89.23 602.669,89.23L633.857,89.23C634.919,89.23 635.781,88.189 635.781,86.908C635.781,85.626 634.919,84.585 633.857,84.585L602.669,84.585ZM649.45,84.585C648.388,84.585 647.526,85.626 647.526,86.908C647.526,88.189 648.388,89.23 649.45,89.23L680.639,89.23C681.701,89.23 682.563,88.189 682.563,86.908C682.563,85.626 681.701,84.585 680.639,84.585L649.45,84.585ZM696.233,84.585C695.171,84.585 694.309,85.626 694.309,86.908C694.309,88.189 695.171,89.23 696.233,89.23L727.421,89.23C728.483,89.23 729.345,88.189 729.345,86.908C729.345,85.626 728.483,84.585 727.421,84.585L696.233,84.585ZM743.015,84.585C741.953,84.585 741.091,85.626 741.091,86.908C741.091,88.189 741.953,89.23 743.015,89.23L774.203,89.23C775.265,89.23 776.127,88.189 776.127,86.908C776.127,85.626 775.265,84.585 774.203,84.585L743.015,84.585ZM789.796,84.585C788.734,84.585 787.872,85.626 787.872,86.908C787.872,88.189 788.734,89.23 789.796,89.23L820.984,89.23C822.046,89.23 822.908,88.189 822.908,86.908C822.908,85.626 822.046,84.585 820.984,84.585L789.796,84.585ZM836.579,84.585C835.517,84.585 834.655,85.626 834.655,86.908C834.655,88.189 835.517,89.23 836.579,89.23L867.767,89.23C868.829,89.23 869.691,88.189 869.691,86.908C869.691,85.626 868.829,84.585 867.767,84.585L836.579,84.585ZM883.361,84.585C882.299,84.585 881.437,85.626 881.437,86.908C881.437,88.189 882.299,89.23 883.361,89.23L914.549,89.23C915.611,89.23 916.473,88.189 916.473,86.908C916.473,85.626 915.611,84.585 914.549,84.585L883.361,84.585ZM930.143,84.585C929.081,84.585 928.219,85.626 928.219,86.908C928.219,88.189 929.081,89.23 930.143,89.23L946.197,89.23C950.941,89.23 955.187,91.801 958.033,95.85C958.72,96.828 959.936,96.948 960.745,96.119C961.555,95.289 961.655,93.822 960.968,92.845C957.416,87.791 952.117,84.585 946.197,84.585L930.143,84.585ZM965.56,111.982C965.56,110.7 964.698,109.659 963.636,109.659C962.574,109.659 961.712,110.7 961.712,111.982L961.712,130.808C961.712,132.09 962.574,133.131 963.636,133.131C964.698,133.131 965.56,132.09 965.56,130.808L965.56,111.982Z" style="fill:rgb(255,98,142);"/>
            </g>
        </g>
        <g id="Cat" transform="matrix(1.16667,0,0,1.16667,-381.667,7.43283)">
            <g>
                <g transform="matrix(2.57143,0,0,2.16667,-720.714,-75.8333)">
                    <ellipse cx="447.5" cy="80" rx="17.5" ry="15" style="fill:rgb(255,98,142);"/>
                </g>
                <path d="M398,76C398,76 398.88,62.361 399.472,53.176C399.566,51.723 400.502,50.46 401.864,49.946C403.227,49.432 404.764,49.764 405.794,50.794C409.98,54.98 415.368,60.368 418.152,63.152C419.335,64.335 420.94,65 422.613,65L436.846,65C438.831,65 440.701,64.065 441.893,62.476C444.04,59.613 447.617,54.844 450.492,51.01C451.261,49.986 452.567,49.52 453.81,49.826C455.053,50.133 455.992,51.153 456.196,52.417C457.675,61.587 460,76 460,76" style="fill:rgb(255,98,142);"/>
            </g>
        </g>
    </g>
</svg>
